<?xml version="1.0" encoding="UTF-8"?>
<!-- Title: 5. Deleted loops in N4 (15) -->
<!-- Creator: Pajek 5.09: http://mrvar.fdv.uni-lj.si/pajek -->
<!-- CreationDate: 04-16-2021, 5:26:10 -->
<svg xml:space="preserve" viewBox="0 0 692 716" xmlns="http://www.w3.org/2000/svg" xmlns:xlink="http://www.w3.org/1999/xlink" xmlns:inkscape="http://www.inkscape.org/namespaces/inkscape">
<title>5. Deleted loops in N4 (15)</title>
<g inkscape:groupmode="layer" id="PajekSig" inkscape:label="PajekSignature">
<g transform="translate(3 698)">
<g transform="scale(0.1)">
<g transform="matrix(1 0 0 -1 0 96)">
<path d="M   7.67  49.98 L  31.76  72.76 L  46.91  78.63
         L  57.23  80.49 M  72.86  65.23 L  65.73  83.25
         L  57.06  75.49 L  56.75  68.65 M  76.27  68.03
         L  75.65  84.50 L  93.92  91.02 L 107.24  74.87
         M  80.29  67.72 L  89.28  84.81 L 104.77  81.70
         L 116.23  73.31 L 121.18  59.33 M  56.75  81.08
         L  71.31  64.30"
         style="fill:none; stroke:saddlebrown; stroke-width:5;"/>
<path d="M  86.18  70.21 L  91.45  73.00 L  95.78  69.58
         M  91.14  60.88 L  96.09  62.75 L  98.26  59.33"
         style="fill:none; stroke:saddlebrown; stroke-width:1.5;"/>
<path d="M  81.07  49.08 L  87.81  49.08 L  93.30  54.38
         L  93.30  60.88 L  93.30  67.39 L  87.81  72.69
         L  81.07  72.69 L  74.33  72.69 L  68.83  67.39
         L  68.83  60.88 L  68.83  54.38 L  74.33  49.08
         L  81.07  49.08 z"
         style="fill:maroon; stroke:saddlebrown; stroke-width:1;"/>
<path d="M  54.63  37.53 L  68.53  43.56 L  75.39  55.85
         L  69.90  65.35 L  64.41  72.86 L  48.60  74.06
         L  34.71  68.04 L  20.81  55.02 L  15.95  40.72
         L  17.44  33.22 L  24.92  28.72 L  40.73  30.51
         L  54.63  37.53 z"
         style="fill:maroon; stroke:saddlebrown; stroke-width:1;" />
<path d="M  77.82  50.63 L 103.84  59.33 L 131.10  43.80
         L 139.46  27.95 L 139.15  15.83 M  35.99   5.27
         L  47.15  32.92 L  61.71  50.01 L  70.07  46.90
         L  82.77  45.04 L  83.39  27.02 L  65.42  12.11
         M  68.52  50.63 L  91.14  49.39 L 103.53  43.17
         L 117.16  22.67 L 115.30   8.38"
         style="fill:none; stroke:saddlebrown; stroke-width:5;"/>
<path d="M  41.57  54.98 L  60.16  64.61 M  52.41  66.17
         L  57.99  57.47"
         style="fill:none; stroke:white; stroke-width:5;"/>
</g>
</g>
<animateMotion dur="20s" path="M3 0 L674 0" begin="120s" fill="freeze"/>
</g>
<g transform="translate(3 698)">
<g transform="scale(0.1)">
<text x="5" y="140" style="font-family:Brush Script MT;font-size:75px;fill:green;">Pajek</text>
</g>
<animateMotion dur="0.1s" path="M3 0 L674 0" begin="120s" fill="freeze"/>
</g>
</g>      <!-- Layer Signature -->

<g inkscape:groupmode="layer" id="PajekNet" inkscape:label="PajekNetwork">

<!-- Edge:     1    2 -->
<line x1="410.62" y1="339.31" x2="105.76" y2="445.60" style="stroke-width:0.01;stroke:rgb(0,112,145)"/>
<!-- Edge:     1    3 -->
<line x1="410.62" y1="339.31" x2="210.69" y2="68.33" style="stroke-width:0.01;stroke:rgb(0,112,145)"/>
<!-- Edge:     1    4 -->
<line x1="410.62" y1="339.31" x2="325.57" y2="676.87" style="stroke-width:0.00;stroke:rgb(0,112,145)"/>
<!-- Edge:     1    5 -->
<line x1="410.62" y1="339.31" x2="37.28" y2="195.64" style="stroke-width:0.01;stroke:rgb(0,112,145)"/>
<!-- Edge:     1    6 -->
<line x1="410.62" y1="339.31" x2="521.82" y2="231.90" style="stroke-width:0.00;stroke:rgb(0,112,145)"/>
<!-- Edge:     1    7 -->
<line x1="410.62" y1="339.31" x2="633.56" y2="385.79" style="stroke-width:0.00;stroke:rgb(0,112,145)"/>
<!-- Edge:     1    8 -->
<line x1="410.62" y1="339.31" x2="398.11" y2="551.65" style="stroke-width:0.00;stroke:rgb(0,112,145)"/>
<!-- Edge:     1    9 -->
<line x1="410.62" y1="339.31" x2="127.57" y2="669.62" style="stroke-width:0.00;stroke:rgb(0,112,145)"/>
<!-- Edge:     1   10 -->
<line x1="410.62" y1="339.31" x2="196.33" y2="382.53" style="stroke-width:0.00;stroke:rgb(0,112,145)"/>
<!-- Edge:     1   11 -->
<line x1="410.62" y1="339.31" x2="361.36" y2="202.40" style="stroke-width:0.00;stroke:rgb(0,112,145)"/>
<!-- Edge:     1   12 -->
<line x1="410.62" y1="339.31" x2="458.11" y2="39.13" style="stroke-width:0.00;stroke:rgb(0,112,145)"/>
<!-- Edge:     1   14 -->
<line x1="410.62" y1="339.31" x2="316.73" y2="401.22" style="stroke-width:0.00;stroke:rgb(0,112,145)"/>
<!-- Edge:     2    3 -->
<line x1="105.76" y1="445.60" x2="210.69" y2="68.33" style="stroke-width:0.02;stroke:rgb(0,112,145)"/>
<!-- Edge:     2    4 -->
<line x1="105.76" y1="445.60" x2="325.57" y2="676.87" style="stroke-width:0.01;stroke:rgb(0,112,145)"/>
<!-- Edge:     2    5 -->
<line x1="105.76" y1="445.60" x2="37.28" y2="195.64" style="stroke-width:0.03;stroke:rgb(0,112,145)"/>
<!-- Edge:     2    6 -->
<line x1="105.76" y1="445.60" x2="521.82" y2="231.90" style="stroke-width:0.00;stroke:rgb(0,112,145)"/>
<!-- Edge:     2    7 -->
<line x1="105.76" y1="445.60" x2="633.56" y2="385.79" style="stroke-width:0.00;stroke:rgb(0,112,145)"/>
<!-- Edge:     2    8 -->
<line x1="105.76" y1="445.60" x2="398.11" y2="551.65" style="stroke-width:0.01;stroke:rgb(0,112,145)"/>
<!-- Edge:     2    9 -->
<line x1="105.76" y1="445.60" x2="127.57" y2="669.62" style="stroke-width:0.01;stroke:rgb(0,112,145)"/>
<!-- Edge:     2   10 -->
<line x1="105.76" y1="445.60" x2="196.33" y2="382.53" style="stroke-width:0.00;stroke:rgb(0,112,145)"/>
<!-- Edge:     2   11 -->
<line x1="105.76" y1="445.60" x2="361.36" y2="202.40" style="stroke-width:0.00;stroke:rgb(0,112,145)"/>
<!-- Edge:     2   12 -->
<line x1="105.76" y1="445.60" x2="458.11" y2="39.13" style="stroke-width:0.00;stroke:rgb(0,112,145)"/>
<!-- Edge:     2   14 -->
<line x1="105.76" y1="445.60" x2="316.73" y2="401.22" style="stroke-width:0.01;stroke:rgb(0,112,145)"/>
<!-- Edge:     3    4 -->
<line x1="210.69" y1="68.33" x2="325.57" y2="676.87" style="stroke-width:0.01;stroke:rgb(0,112,145)"/>
<!-- Edge:     3    5 -->
<line x1="210.69" y1="68.33" x2="37.28" y2="195.64" style="stroke-width:0.03;stroke:rgb(0,112,145)"/>
<!-- Edge:     3    6 -->
<line x1="210.69" y1="68.33" x2="521.82" y2="231.90" style="stroke-width:0.00;stroke:rgb(0,112,145)"/>
<!-- Edge:     3    7 -->
<line x1="210.69" y1="68.33" x2="633.56" y2="385.79" style="stroke-width:0.00;stroke:rgb(0,112,145)"/>
<!-- Edge:     3    8 -->
<line x1="210.69" y1="68.33" x2="398.11" y2="551.65" style="stroke-width:0.01;stroke:rgb(0,112,145)"/>
<!-- Edge:     3    9 -->
<line x1="210.69" y1="68.33" x2="127.57" y2="669.62" style="stroke-width:0.01;stroke:rgb(0,112,145)"/>
<!-- Edge:     3   10 -->
<line x1="210.69" y1="68.33" x2="196.33" y2="382.53" style="stroke-width:0.00;stroke:rgb(0,112,145)"/>
<!-- Edge:     3   11 -->
<line x1="210.69" y1="68.33" x2="361.36" y2="202.40" style="stroke-width:0.01;stroke:rgb(0,112,145)"/>
<!-- Edge:     3   12 -->
<line x1="210.69" y1="68.33" x2="458.11" y2="39.13" style="stroke-width:0.00;stroke:rgb(0,112,145)"/>
<!-- Edge:     3   14 -->
<line x1="210.69" y1="68.33" x2="316.73" y2="401.22" style="stroke-width:0.01;stroke:rgb(0,112,145)"/>
<!-- Edge:     4    5 -->
<line x1="325.57" y1="676.87" x2="37.28" y2="195.64" style="stroke-width:0.01;stroke:rgb(0,112,145)"/>
<!-- Edge:     4    6 -->
<line x1="325.57" y1="676.87" x2="521.82" y2="231.90" style="stroke-width:0.00;stroke:rgb(0,112,145)"/>
<!-- Edge:     4    7 -->
<line x1="325.57" y1="676.87" x2="633.56" y2="385.79" style="stroke-width:0.00;stroke:rgb(0,112,145)"/>
<!-- Edge:     4    8 -->
<line x1="325.57" y1="676.87" x2="398.11" y2="551.65" style="stroke-width:0.01;stroke:rgb(0,112,145)"/>
<!-- Edge:     4    9 -->
<line x1="325.57" y1="676.87" x2="127.57" y2="669.62" style="stroke-width:0.01;stroke:rgb(0,112,145)"/>
<!-- Edge:     4   10 -->
<line x1="325.57" y1="676.87" x2="196.33" y2="382.53" style="stroke-width:0.00;stroke:rgb(0,112,145)"/>
<!-- Edge:     4   11 -->
<line x1="325.57" y1="676.87" x2="361.36" y2="202.40" style="stroke-width:0.00;stroke:rgb(0,112,145)"/>
<!-- Edge:     4   14 -->
<line x1="325.57" y1="676.87" x2="316.73" y2="401.22" style="stroke-width:0.00;stroke:rgb(0,112,145)"/>
<!-- Edge:     5    6 -->
<line x1="37.28" y1="195.64" x2="521.82" y2="231.90" style="stroke-width:0.00;stroke:rgb(0,112,145)"/>
<!-- Edge:     5    7 -->
<line x1="37.28" y1="195.64" x2="633.56" y2="385.79" style="stroke-width:0.00;stroke:rgb(0,112,145)"/>
<!-- Edge:     5    8 -->
<line x1="37.28" y1="195.64" x2="398.11" y2="551.65" style="stroke-width:0.02;stroke:rgb(0,112,145)"/>
<!-- Edge:     5    9 -->
<line x1="37.28" y1="195.64" x2="127.57" y2="669.62" style="stroke-width:0.01;stroke:rgb(0,112,145)"/>
<!-- Edge:     5   10 -->
<line x1="37.28" y1="195.64" x2="196.33" y2="382.53" style="stroke-width:0.00;stroke:rgb(0,112,145)"/>
<!-- Edge:     5   11 -->
<line x1="37.28" y1="195.64" x2="361.36" y2="202.40" style="stroke-width:0.00;stroke:rgb(0,112,145)"/>
<!-- Edge:     5   12 -->
<line x1="37.28" y1="195.64" x2="458.11" y2="39.13" style="stroke-width:0.00;stroke:rgb(0,112,145)"/>
<!-- Edge:     5   14 -->
<line x1="37.28" y1="195.64" x2="316.73" y2="401.22" style="stroke-width:0.01;stroke:rgb(0,112,145)"/>
<!-- Edge:     6    7 -->
<line x1="521.82" y1="231.90" x2="633.56" y2="385.79" style="stroke-width:0.01;stroke:rgb(0,112,145)"/>
<!-- Edge:     6    8 -->
<line x1="521.82" y1="231.90" x2="398.11" y2="551.65" style="stroke-width:0.00;stroke:rgb(0,112,145)"/>
<!-- Edge:     6    9 -->
<line x1="521.82" y1="231.90" x2="127.57" y2="669.62" style="stroke-width:0.00;stroke:rgb(0,112,145)"/>
<!-- Edge:     6   10 -->
<line x1="521.82" y1="231.90" x2="196.33" y2="382.53" style="stroke-width:0.00;stroke:rgb(0,112,145)"/>
<!-- Edge:     6   11 -->
<line x1="521.82" y1="231.90" x2="361.36" y2="202.40" style="stroke-width:0.00;stroke:rgb(0,112,145)"/>
<!-- Edge:     6   12 -->
<line x1="521.82" y1="231.90" x2="458.11" y2="39.13" style="stroke-width:0.00;stroke:rgb(0,112,145)"/>
<!-- Edge:     6   13 -->
<line x1="521.82" y1="231.90" x2="559.73" y2="494.66" style="stroke-width:0.00;stroke:rgb(0,112,145)"/>
<!-- Edge:     6   14 -->
<line x1="521.82" y1="231.90" x2="316.73" y2="401.22" style="stroke-width:0.00;stroke:rgb(0,112,145)"/>
<!-- Edge:     7    8 -->
<line x1="633.56" y1="385.79" x2="398.11" y2="551.65" style="stroke-width:0.00;stroke:rgb(0,112,145)"/>
<!-- Edge:     7    9 -->
<line x1="633.56" y1="385.79" x2="127.57" y2="669.62" style="stroke-width:0.00;stroke:rgb(0,112,145)"/>
<!-- Edge:     7   10 -->
<line x1="633.56" y1="385.79" x2="196.33" y2="382.53" style="stroke-width:0.00;stroke:rgb(0,112,145)"/>
<!-- Edge:     7   11 -->
<line x1="633.56" y1="385.79" x2="361.36" y2="202.40" style="stroke-width:0.00;stroke:rgb(0,112,145)"/>
<!-- Edge:     7   12 -->
<line x1="633.56" y1="385.79" x2="458.11" y2="39.13" style="stroke-width:0.00;stroke:rgb(0,112,145)"/>
<!-- Edge:     7   13 -->
<line x1="633.56" y1="385.79" x2="559.73" y2="494.66" style="stroke-width:0.00;stroke:rgb(0,112,145)"/>
<!-- Edge:     7   14 -->
<line x1="633.56" y1="385.79" x2="316.73" y2="401.22" style="stroke-width:0.00;stroke:rgb(0,112,145)"/>
<!-- Edge:     8    9 -->
<line x1="398.11" y1="551.65" x2="127.57" y2="669.62" style="stroke-width:0.01;stroke:rgb(0,112,145)"/>
<!-- Edge:     8   10 -->
<line x1="398.11" y1="551.65" x2="196.33" y2="382.53" style="stroke-width:0.00;stroke:rgb(0,112,145)"/>
<!-- Edge:     8   11 -->
<line x1="398.11" y1="551.65" x2="361.36" y2="202.40" style="stroke-width:0.00;stroke:rgb(0,112,145)"/>
<!-- Edge:     8   14 -->
<line x1="398.11" y1="551.65" x2="316.73" y2="401.22" style="stroke-width:0.01;stroke:rgb(0,112,145)"/>
<!-- Edge:     9   10 -->
<line x1="127.57" y1="669.62" x2="196.33" y2="382.53" style="stroke-width:0.00;stroke:rgb(0,112,145)"/>
<!-- Edge:     9   11 -->
<line x1="127.57" y1="669.62" x2="361.36" y2="202.40" style="stroke-width:0.00;stroke:rgb(0,112,145)"/>
<!-- Edge:     9   14 -->
<line x1="127.57" y1="669.62" x2="316.73" y2="401.22" style="stroke-width:0.00;stroke:rgb(0,112,145)"/>
<!-- Edge:    10   11 -->
<line x1="196.33" y1="382.53" x2="361.36" y2="202.40" style="stroke-width:0.00;stroke:rgb(0,112,145)"/>
<!-- Edge:    10   12 -->
<line x1="196.33" y1="382.53" x2="458.11" y2="39.13" style="stroke-width:0.00;stroke:rgb(0,112,145)"/>
<!-- Edge:    10   14 -->
<line x1="196.33" y1="382.53" x2="316.73" y2="401.22" style="stroke-width:0.00;stroke:rgb(0,112,145)"/>
<!-- Edge:    11   12 -->
<line x1="361.36" y1="202.40" x2="458.11" y2="39.13" style="stroke-width:0.00;stroke:rgb(0,112,145)"/>
<!-- Edge:    11   14 -->
<line x1="361.36" y1="202.40" x2="316.73" y2="401.22" style="stroke-width:0.00;stroke:rgb(0,112,145)"/>
<!-- Edge:    12   14 -->
<line x1="458.11" y1="39.13" x2="316.73" y2="401.22" style="stroke-width:0.00;stroke:rgb(0,112,145)"/>
<!-- Edge:     1   15 -->
<line x1="410.62" y1="339.31" x2="526.59" y2="624.31" style="stroke-width:0.00;stroke:rgb(0,112,145)"/>
<!-- Edge:     2   15 -->
<line x1="105.76" y1="445.60" x2="526.59" y2="624.31" style="stroke-width:0.00;stroke:rgb(0,112,145)"/>
<!-- Edge:     3   15 -->
<line x1="210.69" y1="68.33" x2="526.59" y2="624.31" style="stroke-width:0.00;stroke:rgb(0,112,145)"/>
<!-- Edge:     4   15 -->
<line x1="325.57" y1="676.87" x2="526.59" y2="624.31" style="stroke-width:0.00;stroke:rgb(0,112,145)"/>
<!-- Edge:     5   15 -->
<line x1="37.28" y1="195.64" x2="526.59" y2="624.31" style="stroke-width:0.01;stroke:rgb(0,112,145)"/>
<!-- Edge:     6   15 -->
<line x1="521.82" y1="231.90" x2="526.59" y2="624.31" style="stroke-width:0.00;stroke:rgb(0,112,145)"/>
<!-- Edge:     7   15 -->
<line x1="633.56" y1="385.79" x2="526.59" y2="624.31" style="stroke-width:0.00;stroke:rgb(0,112,145)"/>
<!-- Edge:     8   15 -->
<line x1="398.11" y1="551.65" x2="526.59" y2="624.31" style="stroke-width:0.00;stroke:rgb(0,112,145)"/>
<!-- Edge:     9   15 -->
<line x1="127.57" y1="669.62" x2="526.59" y2="624.31" style="stroke-width:0.00;stroke:rgb(0,112,145)"/>
<!-- Edge:    10   15 -->
<line x1="196.33" y1="382.53" x2="526.59" y2="624.31" style="stroke-width:0.00;stroke:rgb(0,112,145)"/>
<!-- Edge:    11   15 -->
<line x1="361.36" y1="202.40" x2="526.59" y2="624.31" style="stroke-width:0.00;stroke:rgb(0,112,145)"/>
<!-- Edge:    12   15 -->
<line x1="458.11" y1="39.13" x2="526.59" y2="624.31" style="stroke-width:0.00;stroke:rgb(0,112,145)"/>
<!-- Edge:    13   15 -->
<line x1="559.73" y1="494.66" x2="526.59" y2="624.31" style="stroke-width:0.00;stroke:rgb(0,112,145)"/>
<!-- Edge:    14   15 -->
<line x1="316.73" y1="401.22" x2="526.59" y2="624.31" style="stroke-width:0.00;stroke:rgb(0,112,145)"/>

<!-- Vertex:     1 -->
<ellipse cx="410.62" cy="339.31" rx="10.00" ry="10.00" style="fill:rgb(255,217,188);stroke:rgb(102,0,0);stroke-width:0.50;"/>
<text x="415.79" y="358.63" style="font-family:Arial Unicode MS;font-weight: bold;font-size:15px;fill:rgb(173,0,0)">Azer</text>
<!-- Vertex:     2 -->
<ellipse cx="105.76" cy="445.60" rx="10.00" ry="10.00" style="fill:rgb(255,217,188);stroke:rgb(102,0,0);stroke-width:0.50;"/>
<text x="110.94" y="464.92" style="font-family:Arial Unicode MS;font-weight: bold;font-size:15px;fill:rgb(173,0,0)">Armen</text>
<!-- Vertex:     3 -->
<ellipse cx="210.69" cy="68.33" rx="10.00" ry="10.00" style="fill:rgb(255,217,188);stroke:rgb(102,0,0);stroke-width:0.50;"/>
<text x="215.87" y="87.65" style="font-family:Arial Unicode MS;font-weight: bold;font-size:15px;fill:rgb(173,0,0)">Belorus</text>
<!-- Vertex:     4 -->
<ellipse cx="325.57" cy="676.87" rx="10.00" ry="10.00" style="fill:rgb(255,217,188);stroke:rgb(102,0,0);stroke-width:0.50;"/>
<text x="330.74" y="696.19" style="font-family:Arial Unicode MS;font-weight: bold;font-size:15px;fill:rgb(173,0,0)">Estonia</text>
<!-- Vertex:     5 -->
<ellipse cx="37.28" cy="195.64" rx="10.00" ry="10.00" style="fill:rgb(255,217,188);stroke:rgb(102,0,0);stroke-width:0.50;"/>
<text x="42.45" y="214.96" style="font-family:Arial Unicode MS;font-weight: bold;font-size:15px;fill:rgb(173,0,0)">Georgia</text>
<!-- Vertex:     6 -->
<ellipse cx="521.82" cy="231.90" rx="10.00" ry="10.00" style="fill:rgb(255,217,188);stroke:rgb(102,0,0);stroke-width:0.50;"/>
<text x="527.00" y="251.22" style="font-family:Arial Unicode MS;font-weight: bold;font-size:15px;fill:rgb(173,0,0)">Kazah</text>
<!-- Vertex:     7 -->
<ellipse cx="633.56" cy="385.79" rx="10.00" ry="10.00" style="fill:rgb(255,217,188);stroke:rgb(102,0,0);stroke-width:0.50;"/>
<text x="638.74" y="405.10" style="font-family:Arial Unicode MS;font-weight: bold;font-size:15px;fill:rgb(173,0,0)">Kirgiz</text>
<!-- Vertex:     8 -->
<ellipse cx="398.11" cy="551.65" rx="10.00" ry="10.00" style="fill:rgb(255,217,188);stroke:rgb(102,0,0);stroke-width:0.50;"/>
<text x="403.29" y="570.96" style="font-family:Arial Unicode MS;font-weight: bold;font-size:15px;fill:rgb(173,0,0)">Latv</text>
<!-- Vertex:     9 -->
<ellipse cx="127.57" cy="669.62" rx="10.00" ry="10.00" style="fill:rgb(255,217,188);stroke:rgb(102,0,0);stroke-width:0.50;"/>
<text x="132.75" y="688.94" style="font-family:Arial Unicode MS;font-weight: bold;font-size:15px;fill:rgb(173,0,0)">Litva</text>
<!-- Vertex:    10 -->
<ellipse cx="196.33" cy="382.53" rx="10.00" ry="10.00" style="fill:rgb(255,217,188);stroke:rgb(102,0,0);stroke-width:0.50;"/>
<text x="201.51" y="401.85" style="font-family:Arial Unicode MS;font-weight: bold;font-size:15px;fill:rgb(173,0,0)">Moldav</text>
<!-- Vertex:    11 -->
<ellipse cx="361.36" cy="202.40" rx="10.00" ry="10.00" style="fill:rgb(255,217,188);stroke:rgb(102,0,0);stroke-width:0.50;"/>
<text x="366.53" y="221.71" style="font-family:Arial Unicode MS;font-weight: bold;font-size:15px;fill:rgb(173,0,0)">Russia</text>
<!-- Vertex:    12 -->
<ellipse cx="458.11" cy="39.13" rx="10.00" ry="10.00" style="fill:rgb(255,217,188);stroke:rgb(102,0,0);stroke-width:0.50;"/>
<text x="463.29" y="58.45" style="font-family:Arial Unicode MS;font-weight: bold;font-size:15px;fill:rgb(173,0,0)">Tadjik</text>
<!-- Vertex:    13 -->
<ellipse cx="559.73" cy="494.66" rx="10.00" ry="10.00" style="fill:rgb(255,217,188);stroke:rgb(102,0,0);stroke-width:0.50;"/>
<text x="564.91" y="513.98" style="font-family:Arial Unicode MS;font-weight: bold;font-size:15px;fill:rgb(173,0,0)">Turkmen</text>
<!-- Vertex:    14 -->
<ellipse cx="316.73" cy="401.22" rx="10.00" ry="10.00" style="fill:rgb(255,217,188);stroke:rgb(102,0,0);stroke-width:0.50;"/>
<text x="321.91" y="420.54" style="font-family:Arial Unicode MS;font-weight: bold;font-size:15px;fill:rgb(173,0,0)">Ukraina</text>
<!-- Vertex:    15 -->
<ellipse cx="526.59" cy="624.31" rx="10.00" ry="10.00" style="fill:rgb(255,217,188);stroke:rgb(102,0,0);stroke-width:0.50;"/>
<text x="531.77" y="643.63" style="font-family:Arial Unicode MS;font-weight: bold;font-size:15px;fill:rgb(173,0,0)">Uzbekistan</text>
</g>         <!-- Layer Network -->
</svg>
